<?xml version="1.0" encoding="UTF-8" standalone="no" ?>
<!DOCTYPE svg PUBLIC "-//W3C//DTD SVG 1.1//EN" "http://www.w3.org/Graphics/SVG/1.1/DTD/svg11.dtd">
<svg xmlns="http://www.w3.org/2000/svg" xmlns:xlink="http://www.w3.org/1999/xlink" version="1.1" width="500" height="500" viewBox="0 0 500 500" xml:space="preserve">
<desc>Created with Fabric.js 4.6.0</desc>
<defs>
</defs>
<g transform="matrix(0.71 0 0 0.71 250 464.16)" id="batWTTcDOj5d8ktwuNvVN"  >
<path style="stroke: none; stroke-width: 1; stroke-dasharray: none; stroke-linecap: butt; stroke-dashoffset: 0; stroke-linejoin: miter; stroke-miterlimit: 4; fill: rgb(29,94,137); fill-rule: nonzero; opacity: 1;" vector-effect="non-scaling-stroke"  transform=" translate(-227.99, -47.24)" d="M 0 47.24 C 0 21.150070000000003 102.0746 0 227.99 0 C 353.9054 0 455.98 21.15007 455.98 47.24 C 455.98 73.32993 353.9054 94.48 227.99 94.48 C 102.0746 94.48 0 73.32993 0 47.24 z" stroke-linecap="round" />
</g>
<g transform="matrix(0.71 0 0 0.71 250.01 167.41)" id="dXyXmYwuMcpoZyLKO11MD"  >
<path style="stroke: none; stroke-width: 1; stroke-dasharray: none; stroke-linecap: butt; stroke-dashoffset: 0; stroke-linejoin: miter; stroke-miterlimit: 4; fill: rgb(242,247,249); fill-rule: nonzero; opacity: 1;" vector-effect="non-scaling-stroke"  transform=" translate(-1200.01, -604.47)" d="M 1347.74 392.91 L 1163 392.91 L 1023.35 532.58 L 1163 503.82 C 1163.0005649195584 511.4147793817857 1159.9907671606036 518.7001440886464 1154.63 524.08 L 1053.46 625.6 C 1056.0978499030111 623.2822025317553 1059.4885288098994 622.0027010574578 1063 622 C 1070.85 622 1077.22 628.09 1077.22 635.59 C 1077.22 643.09 1070.8500000000001 649.1700000000001 1063 649.1700000000001 C 1055.1499999999999 649.1700000000001 1048.79 643.1 1048.79 635.59 C 1048.81547984871 632.3375540930903 1050.0445086513073 629.2097648505385 1052.24 626.8100000000001 L 1023.37 655.8100000000001 L 1023.37 788.39 C 1023.37 803.59 1036.37 816.02 1052.27 816.02 L 1347.75 816.02 C 1363.66 816.02 1376.66 803.59 1376.66 788.39 L 1376.66 420.54 C 1376.65 405.35 1363.63 392.91 1347.74 392.91 Z M 1063 785.06 C 1055.16 785.06 1048.79 778.9899999999999 1048.79 771.4899999999999 C 1048.79 763.9899999999999 1055.1599999999999 757.8899999999999 1063 757.8899999999999 C 1070.8400000000001 757.8899999999999 1077.22 763.9799999999999 1077.22 771.4899999999999 C 1077.22 778.9999999999999 1070.83 785.06 1063 785.06 Z M 1063 717.14 C 1055.16 717.14 1048.79 711.06 1048.79 703.56 C 1048.79 696.06 1055.14 690 1063 690 C 1070.86 690 1077.22 696.08 1077.22 703.59 C 1077.22 711.1 1070.83 717.14 1063 717.14 Z" stroke-linecap="round" />
</g>
<g transform="matrix(0.71 0 0 0.71 265.47 150.22)" id="JZBhDFfPdOMDWYX93BaKr"  >
<path style="stroke: none; stroke-width: 1; stroke-dasharray: none; stroke-linecap: butt; stroke-dashoffset: 0; stroke-linejoin: miter; stroke-miterlimit: 4; fill: rgb(218,223,226); fill-rule: nonzero; opacity: 1;" vector-effect="non-scaling-stroke"  transform=" translate(-104.75, -6.65)" d="M 0 13.3 L 0 0 L 209.5 0 L 209.5 13.3 z" stroke-linecap="round" />
</g>
<g transform="matrix(0.71 0 0 0.71 265.47 189.67)" id="Y2d8Mz8AkANhTl96MCjvz"  >
<path style="stroke: none; stroke-width: 1; stroke-dasharray: none; stroke-linecap: butt; stroke-dashoffset: 0; stroke-linejoin: miter; stroke-miterlimit: 4; fill: rgb(218,223,226); fill-rule: nonzero; opacity: 1;" vector-effect="non-scaling-stroke"  transform=" translate(-104.75, -6.65)" d="M 0 13.3 L 0 0 L 209.5 0 L 209.5 13.3 z" stroke-linecap="round" />
</g>
<g transform="matrix(0.71 0 0 0.71 265.47 229.1)" id="trRzOvhYkz9jWo8IdTXH_"  >
<path style="stroke: none; stroke-width: 1; stroke-dasharray: none; stroke-linecap: butt; stroke-dashoffset: 0; stroke-linejoin: miter; stroke-miterlimit: 4; fill: rgb(218,223,226); fill-rule: nonzero; opacity: 1;" vector-effect="non-scaling-stroke"  transform=" translate(-104.75, -6.65)" d="M 0 13.3 L 0 0 L 209.5 0 L 209.5 13.3 z" stroke-linecap="round" />
</g>
<g transform="matrix(0.71 0 0 0.71 265.47 268.54)" id="unE9vpYtltGUoM_EBmzca"  >
<path style="stroke: none; stroke-width: 1; stroke-dasharray: none; stroke-linecap: butt; stroke-dashoffset: 0; stroke-linejoin: miter; stroke-miterlimit: 4; fill: rgb(218,223,226); fill-rule: nonzero; opacity: 1;" vector-effect="non-scaling-stroke"  transform=" translate(-104.75, -6.65)" d="M 0 13.3 L 0 0 L 209.5 0 L 209.5 13.3 z" stroke-linecap="round" />
</g>
<g transform="matrix(0.71 0 0 0.71 295 71.35)" id="f-JjovD8fOZ5Maxnxu_UL"  >
<path style="stroke: none; stroke-width: 1; stroke-dasharray: none; stroke-linecap: butt; stroke-dashoffset: 0; stroke-linejoin: miter; stroke-miterlimit: 4; fill: rgb(218,223,226); fill-rule: nonzero; opacity: 1;" vector-effect="non-scaling-stroke"  transform=" translate(-63.24, -6.65)" d="M 0 13.3 L 0 0 L 126.49 0 L 126.49 13.3 z" stroke-linecap="round" />
</g>
<g transform="matrix(0.71 0 0 0.71 295 110.79)" id="jDPJv3nCEZUsGw4_auwSn"  >
<path style="stroke: none; stroke-width: 1; stroke-dasharray: none; stroke-linecap: butt; stroke-dashoffset: 0; stroke-linejoin: miter; stroke-miterlimit: 4; fill: rgb(218,223,226); fill-rule: nonzero; opacity: 1;" vector-effect="non-scaling-stroke"  transform=" translate(-63.24, -6.65)" d="M 0 13.3 L 0 0 L 126.49 0 L 126.49 13.3 z" stroke-linecap="round" />
</g>
<g transform="matrix(0.71 0 0 0.71 173.99 149.87)" id="oJBObpI2-TL1z1kQdlkbM"  >
<path style="stroke: none; stroke-width: 1; stroke-dasharray: none; stroke-linecap: butt; stroke-dashoffset: 0; stroke-linejoin: miter; stroke-miterlimit: 4; fill: rgb(221,226,229); fill-rule: nonzero; opacity: 1;" vector-effect="non-scaling-stroke"  transform=" translate(-1093.18, -579.82)" d="M 1053.46 625.6 L 1154.64 524.08 C 1160.0007671606036 518.7001440886464 1163.0105649195582 511.4147793817857 1163.01 503.82000000000005 L 1023.35 532.58 L 1023.35 655.81 L 1052.22 626.81 C 1052.6088632109995 626.3823280030764 1053.022934479003 625.9782745883311 1053.46 625.6 Z M 1062.98 554.1 C 1070.83 554.1 1077.2 560.1800000000001 1077.2 567.69 C 1077.2 575.2 1070.8300000000002 581.2700000000001 1062.98 581.2700000000001 C 1055.1299999999999 581.2700000000001 1048.77 575.19 1048.77 567.69 C 1048.77 560.19 1055.14 554.1 1063 554.1 Z" stroke-linecap="round" />
</g>
<g transform="matrix(0.71 0 0 0.71 173.98 66.56)" id="8Wn98MZPOl4Wox6kAVlA-"  >
<path style="stroke: none; stroke-width: 1; stroke-dasharray: none; stroke-linecap: butt; stroke-dashoffset: 0; stroke-linejoin: miter; stroke-miterlimit: 4; fill: rgb(253,138,41); fill-rule: nonzero; opacity: 1;" vector-effect="non-scaling-stroke"  transform=" translate(-1093.17, -462.74)" d="M 1163 392.91 L 1023.35 532.57 L 1134.25 532.57 C 1150.1258998793217 532.5644808269362 1162.994480826936 519.6958998793216 1163 503.82 Z" stroke-linecap="round" />
</g>
</svg>