<?xml version="1.0" encoding="UTF-8" standalone="no" ?>
<!DOCTYPE svg PUBLIC "-//W3C//DTD SVG 1.1//EN" "http://www.w3.org/Graphics/SVG/1.1/DTD/svg11.dtd">
<svg xmlns="http://www.w3.org/2000/svg" xmlns:xlink="http://www.w3.org/1999/xlink" version="1.1" width="500" height="500" viewBox="0 0 500 500" xml:space="preserve">
<desc>Created with Fabric.js 4.6.0</desc>
<defs>
</defs>
<g transform="matrix(1 0 0 1 204.68 200.22)" id="TWCUCM3wkwrvXb7U21ARQ"  >
<path style="stroke: none; stroke-width: 1; stroke-dasharray: none; stroke-linecap: butt; stroke-dashoffset: 0; stroke-linejoin: miter; stroke-miterlimit: 4; fill: rgb(233,238,241); fill-rule: nonzero; opacity: 1;" vector-effect="non-scaling-stroke"  transform=" translate(-1845.45, -554.71)" d="M 1937.2 714.53 C 1932.27 728.14 1986.64 666.89 1972.54 674.1899999999999 L 1731.44 392.90999999999997 C 1705.9000256955808 435.4719197027994 1712.6083266976802 489.9547036251984 1747.71 525.05 Z" stroke-linecap="round" />
</g>
<g transform="matrix(1 0 0 1 359.96 387.97)" id="n49ZHsnGui5f3Cb28j1JV"  >
<path style="stroke: none; stroke-width: 1; stroke-dasharray: none; stroke-linecap: butt; stroke-dashoffset: 0; stroke-linejoin: miter; stroke-miterlimit: 4; fill: rgb(253,138,41); fill-rule: nonzero; opacity: 1;" vector-effect="non-scaling-stroke"  transform=" translate(-2000.73, -742.46)" d="M 1927.19 742.5 C 1927.1738195308162 712.7522118053641 1945.0810029388508 685.9245854254484 1972.559732948384 674.5293863774424 C 2000.0384629579173 663.1341873294364 2031.6758865969243 669.4160803781384 2052.716473903671 690.4452232533883 C 2073.7570612104178 711.4743661286382 2080.0561662898076 743.1083672980784 2068.6759192700206 770.5932930219934 C 2057.2956722502336 798.0782187459084 2030.4777925950898 815.9999955995457 2000.73 816 C 1960.1456126272133 815.9449418944762 1927.2560969683375 783.0643708958286 1927.19 742.48 M 1959.75 742.48 C 1959.75 765.1236747430626 1978.1063252569375 783.48 2000.75 783.48 C 2023.3936747430625 783.48 2041.75 765.1236747430626 2041.75 742.48 C 2041.75 719.8363252569375 2023.3936747430625 701.48 2000.75 701.48 C 1978.1063252569375 701.48 1959.75 719.8363252569375 1959.75 742.48" stroke-linecap="round" />
</g>
<g transform="matrix(1 0 0 1 269.93 291.12)" id="GCIL8lmAGMxvm8ewLBd6V"  >
<path style="stroke: none; stroke-width: 1; stroke-dasharray: none; stroke-linecap: butt; stroke-dashoffset: 0; stroke-linejoin: miter; stroke-miterlimit: 4; fill: rgb(204,209,211); fill-rule: nonzero; opacity: 1;" vector-effect="non-scaling-stroke"  transform=" translate(-1910.7, -645.61)" d="M 1912.08 603.67 L 1871.47 648.8 L 1910.2 687.55 L 1949.92 647.8199999999999 z" stroke-linecap="round" />
</g>
<g transform="matrix(1 0 0 1 295.31 200.22)" id="BIIDpFyjs-zGXDwtMo8U8"  >
<path style="stroke: none; stroke-width: 1; stroke-dasharray: none; stroke-linecap: butt; stroke-dashoffset: 0; stroke-linejoin: miter; stroke-miterlimit: 4; fill: rgb(242,247,249); fill-rule: nonzero; opacity: 1;" vector-effect="non-scaling-stroke"  transform=" translate(-1936.08, -554.71)" d="M 2033.81 525.05 C 2068.9116733023197 489.9547036251984 2075.6199743044194 435.47191970279937 2050.08 392.9099999999999 L 1809 674.19 C 1794.9 666.8900000000001 1849.25 728.1400000000001 1844.34 714.5300000000001 Z" stroke-linecap="round" />
</g>
<g transform="matrix(1 0 0 1 140.03 388.04)" id="98UwoByZbJv-tV3Sbq7Nu"  >
<path style="stroke: none; stroke-width: 1; stroke-dasharray: none; stroke-linecap: butt; stroke-dashoffset: 0; stroke-linejoin: miter; stroke-miterlimit: 4; fill: rgb(253,138,41); fill-rule: nonzero; opacity: 1;" vector-effect="non-scaling-stroke"  transform=" translate(-1780.8, -742.53)" d="M 1780.78 669 C 1740.184890199038 669.0551396173607 1707.297537030936 701.9648620911136 1707.27 742.56 C 1707.27 743.9499999999999 1707.27 745.3 1707.3899999999999 746.65 C 1709.5710462247484 785.6014246277407 1741.792560404852 816.0692001994739 1780.8049999999998 816.0692001994739 C 1819.8174395951478 816.0692001994739 1852.0389537752512 785.6014246277407 1854.2199999999998 746.65 C 1854.2999999999997 745.3 1854.3399999999997 743.9499999999999 1854.3399999999997 742.56 C 1854.3014103454625 701.9499289010442 1821.3900710989556 669.0385896545373 1780.78 669 Z M 1821.56 746.5699999999999 L 1821.56 746.7399999999999 C 1819.364731766072 767.6079615263225 1801.7681127548553 783.4505507346511 1780.7849999999999 783.4505507346511 C 1759.8018872451446 783.4505507346511 1742.2052682339279 767.6079615263225 1740.01 746.7399999999999 L 1740.01 746.5699999999999 C 1739.8799999999999 745.26 1739.8 743.91 1739.8 742.5699999999999 C 1739.8 719.9263252569374 1758.1563252569374 701.5699999999999 1780.8 701.5699999999999 C 1803.4436747430625 701.5699999999999 1821.8 719.9263252569374 1821.8 742.5699999999999 C 1821.76 743.86 1821.68 745.21 1821.56 746.52 Z" stroke-linecap="round" />
</g>
<g transform="matrix(1 0 0 1 249.99 266.76)" id="faAObDOMj5W-5yEYYGXDi"  >
<path style="stroke: none; stroke-width: 1; stroke-dasharray: none; stroke-linecap: butt; stroke-dashoffset: 0; stroke-linejoin: miter; stroke-miterlimit: 4; fill: rgb(219,224,226); fill-rule: nonzero; opacity: 1;" vector-effect="non-scaling-stroke"  transform=" translate(-1890.76, -621.25)" d="M 1890.76 602.92 C 1898.1737929473634 602.92 1904.8575760989906 607.3859611224023 1907.694711830932 614.2354126847478 C 1910.531847562873 621.0848642470934 1908.9636105665431 628.9689240317556 1903.7212672991495 634.2112672991493 C 1898.478924031756 639.453610566543 1890.5948642470937 641.021847562873 1883.745412684748 638.1847118309319 C 1876.8959611224025 635.3475760989908 1872.43 628.6637929473635 1872.43 621.25 C 1872.4273452182815 616.3877683698901 1874.3576835680833 611.7239185077443 1877.7958010379139 608.2858010379139 C 1881.2339185077444 604.8476835680833 1885.89776836989 602.9173452182815 1890.76 602.92" stroke-linecap="round" />
</g>
</svg>